<svg width="1534" height="43" viewBox="0 0 1534 43" fill="none" xmlns="http://www.w3.org/2000/svg">
<path d="M0 2.5C74 2.5 32 37 100.5 37C169 37 147.5 2.5 198 2.5C248.5 2.5 240.5 37 306.5 37C372.5 37 349 2.5 417.5 2.5C486 2.5 457.5 37 507.5 37C557.5 37 554.5 2.5 623.5 2.5C692.5 2.5 676 37 734.5 37C793 37 784.5 2.5 837.5 2.5C890.5 2.5 893.5 37 951.5 37C1009.5 37 980.5 2.5 1046.5 2.5C1112.5 2.5 1091.5 37 1155 37C1218.5 37 1178.5 2.5 1242 2.5C1305.5 2.5 1258.5 37 1348 37C1437.5 37 1379 2.5 1437.5 2.5C1496 2.5 1480 53 1533 37" stroke="#393457" stroke-width="5"/>
</svg>
